<?xml version="1.0" encoding="utf-8" ?><svg xmlns="http://www.w3.org/2000/svg" xmlns:xlink="http://www.w3.org/1999/xlink" width="477" height="300" viewBox="0 0 477 300"><clipPath id="cl_3"><rect x="-4.5776367e-05" y="6.1035156e-05" width="477.07874" height="299.65274"/></clipPath><g clip-path="url(#cl_3)"><path transform="matrix(0.657133 0 0 0.657133 -172.169 -101.856)" d="M618.958 182.02L617.641 179.737L618.146 179.461C625.041 184.173 641.43 193.742 642.414 201.65C643.289 208.67 638.568 214.607 636.676 220.524L643.502 223.636L640.651 229.728C642.086 230.55 650.491 236.904 651.34 236.629C652.369 236.296 653.388 235.387 654.259 234.749C656.359 236.182 654.967 237.695 657.469 238.736C662.431 236.829 667.488 223.935 669.022 218.877C667.598 215.323 666.417 212.516 664.739 209.074C669.273 213.017 670.906 214.777 674.93 219.361C677.745 222.335 680.561 225.209 683.091 228.436C689.04 234.083 691.622 236.246 699.572 238.606C703.58 243.272 705.279 246.536 708.419 251.748C716.259 255.085 718.218 256.629 720.177 265.245C722.652 266.41 724.948 267.787 727.644 267.759C729.133 267.162 728.645 267.657 729.334 266.437C729.788 264.582 729.316 265.294 730.607 264.116L732.427 264.467L733.987 264.139C734.062 262.221 732.971 261.236 731.792 259.311C731.163 257.919 739.437 266.111 739.85 266.593C746.184 272.128 750.362 274.534 749.245 283.641C753.417 285.454 756.58 288.65 759.46 292.105C759.383 294.709 758.655 306.956 759.009 308.513C759.899 308.492 759.604 308.342 759.996 308.6C762.363 311.215 763.539 312.411 764.586 315.898C764.864 314.533 765.26 314.269 766.183 313.243C772.631 319.616 773.779 312.535 778.936 314.593C779.915 316.396 779.479 317.476 779.14 319.554L780.133 321.76C787.354 325.071 789.96 316.686 791.644 311.914L792.302 312.088L793.29 315.066L793.968 314.886C793.972 319.411 793.116 325.836 796.07 328.917C799.342 330.573 806.527 328.508 809.83 327.111L810.288 325.6C815.825 326.849 818.912 327.995 823.747 331.085C824.158 331.348 826.901 330.386 827.603 331.184C825.206 331.975 825.451 331.495 824.08 333.142C825.201 337.735 830.077 337.794 833.739 338.989C834.491 339.235 840.27 344.118 840.589 344.617C841.146 347.621 842.612 348.831 844.873 350.687C848.854 353.955 904.615 361.227 915.226 363.766C912.134 371.02 908.538 378.971 905.694 386.255L925.814 448.03C929.062 457.961 932.435 469.34 936.354 478.928C940.629 489.387 954.203 505.639 958.211 515.768C930.462 521.474 934.271 521.229 906.828 514.556C893.425 511.28 879.976 508.193 866.486 505.296C832.959 498.057 799.909 493.379 765.914 489.18C764.131 487.156 760.81 482.771 758.515 481.942C757.487 482.729 757.584 482.725 757.108 483.951C756.575 484.815 755.936 486.058 755.221 486.674C747.023 491.625 740.667 489.694 731.445 491.096C729.732 491.356 725.984 492.528 724.227 493.062C716.469 488.638 714.239 491.292 707.248 487.34C691.474 490.304 693.941 488.217 679.685 487.919C676.213 488.82 671.83 490.774 668.01 491.63C655.183 494.506 654.698 489.558 645.904 482.315C644.682 481.309 639.592 479.124 637.739 478.318C630.243 477.412 595.168 476.657 588.983 478.669C583.593 481.617 580.386 483.047 575.493 478.544C567.445 478.357 560.307 478.773 552.27 479.213C567.093 482.689 572.075 491.152 565.776 505.331C572.844 505.457 579.455 506.169 582.285 513.915C592.098 507.049 601.716 501.437 612.262 510.475C618.258 505.587 615.491 475.948 638.752 488.261C644.476 498.108 635.927 504.559 629.488 511.05C633.491 508.531 635.476 506.972 640.157 505.747C646.793 506.189 644.766 507.363 650.328 509.11C653.38 509.269 657.402 507.857 660.372 507.924C666.094 508.054 666.975 515.927 666.771 520.44C673.811 512.283 682.151 504.019 694.097 507.341C702.539 509.688 711.778 512.347 708.861 523.5L708.69 524.138C710.947 524.291 721.263 513.726 725.283 518.938C732.589 528.761 718.918 539.592 712.146 545.337C704.075 552.184 692.415 556.926 684.731 547.087C676.386 552.368 672.46 553.474 663.707 548.265C654.656 553.889 646.833 556.135 640.513 545.464C634.446 551.061 631.563 553.175 623.256 550.329C614.949 553.699 610.452 554.574 603.797 547.562C591.152 555.061 583.819 555.191 573.479 544.775C564.937 551.875 557.937 556.788 547.429 549.329C539.209 555.808 524.676 562.344 514.751 562.293C474.94 562.092 483.125 520.577 503.6 500.691C517.908 486.794 530.879 479.466 550.431 479.035C548.82 477.143 547.252 475.332 545.758 473.343C536.254 476.332 529.916 480.183 519.79 481.992C515.68 484.359 513.053 485.365 508.679 487.096C507.847 489.498 508.039 490.16 506.288 491.689C500.073 492.786 489.46 489.528 482.891 488.915C479.238 488.575 475.793 488.757 472.135 489.023C470.971 489.426 450.424 491.677 447.602 492.101C428.855 494.921 409.567 497.342 390.935 500.76C375.969 503.506 359.691 508.729 344.848 512.647C337.466 514.595 327.252 518.302 319.881 519.206C313.496 519.989 299.771 516.625 293.045 515.157C299.182 502.282 307.424 488.843 312.748 475.838C314.059 472.638 314.307 456.646 314.549 452.032L317.509 389.202C312.8 381.69 308.632 373.913 304.367 366.143C321.057 360.485 338.641 357.251 355.863 353.81C360.818 352.82 381.331 349.514 384.041 347.528L384.655 347.525C384.396 345.583 384.229 345.362 383.092 343.751C390.541 338.654 392.894 333.646 403.973 332.414C402.851 331.706 401.327 331.049 400.951 330.032C411.238 332.23 403.829 325.743 416.334 325.419C421.672 320.215 419.078 319.702 426.374 320.469C427.141 318.748 427.617 317.362 428.226 315.589C430.623 314.486 432.595 317.498 435.885 316.664C439.728 315.69 441.175 312.494 445.09 311.795C447.231 312.25 447.442 312.705 449.091 314.315C452.442 316.859 463.058 317.3 467.235 315.847C480.507 296.595 506.134 272.173 528.866 265.592C530.913 259.054 536.593 254.634 542 250.852L547.982 252.661C553.549 248.591 554.898 247.351 561.769 249.082L563.663 249.485C569.958 249.624 570.04 249.292 573.151 243.992C572.817 240.221 570.718 231.341 571.866 228.549C575.31 220.172 599.582 210.999 606.24 207.085L606.872 206.71L614.647 196.462C618.86 196.756 621.258 196.878 625.477 196.638C625.345 188.258 621.234 189.947 618.958 182.02ZM524.702 541.947C533.909 538.728 541.714 534.846 545.784 525.642C546.778 523.395 547.612 520.842 549.259 519.248L549 518.362C523.915 517.471 543.767 499.018 543.753 498.621L542.882 498.579C528.595 504.487 518.275 513.98 511.873 528.169C505.884 541.442 511.296 545.94 524.702 541.947ZM595.661 533.038C597.51 531.816 599.791 530.741 600.424 528.817C599.67 527.523 599.547 527.6 598.211 526.998C596.313 528.978 595.176 529.976 593.961 532.447L594.084 533.269C594.415 533.228 595.391 533.135 595.661 533.038Z"/><defs><linearGradient id="gradient_0" gradientUnits="userSpaceOnUse" x1="611.09229" y1="246.78731" x2="608.63422" y2="243.90828"><stop offset="0" stop-color="#FFA40B"/><stop offset="1" stop-color="#FEC20D"/></linearGradient></defs><path fill="url(#gradient_0)" transform="matrix(0.657133 0 0 0.657133 -172.169 -101.856)" d="M612.724 239.631C613.759 239.755 614.262 239.718 615.208 240.124C617.356 241.669 617.999 241.566 618.729 243.737L618.175 244.851C615.274 245.997 614.899 246.446 612.683 248.563L611.361 249.933L609.559 250.103L606.32 251.832C605.272 250.431 605.211 250.784 603.192 250.08L602.739 248.565L605.389 246.567C608.189 244.242 610.444 242.527 612.724 239.631Z"/><path fill="#FB7302" transform="matrix(0.657133 0 0 0.657133 -172.169 -101.856)" d="M615.208 240.124C617.356 241.669 617.999 241.566 618.729 243.737L618.175 244.851C615.274 245.997 614.899 246.446 612.683 248.563C611.489 248.379 611.775 248.413 610.645 247.913C610.934 246.277 613.948 242.396 615.208 240.124Z"/><path fill="#FA5601" transform="matrix(0.657133 0 0 0.657133 -172.169 -101.856)" d="M618.958 182.02L617.641 179.737L618.146 179.461C625.041 184.173 641.43 193.742 642.414 201.65C643.289 208.67 638.568 214.607 636.676 220.524L643.502 223.636L640.651 229.728C642.086 230.55 650.491 236.904 651.34 236.629C652.369 236.296 653.388 235.387 654.259 234.749C656.359 236.182 654.967 237.695 657.469 238.736C662.431 236.829 667.488 223.935 669.022 218.877C667.598 215.323 666.417 212.516 664.739 209.074C669.273 213.017 670.906 214.777 674.93 219.361C677.745 222.335 680.561 225.209 683.091 228.436C689.04 234.083 691.622 236.246 699.572 238.606C703.58 243.272 705.279 246.536 708.419 251.748C716.259 255.085 718.218 256.629 720.177 265.245C722.652 266.41 724.948 267.787 727.644 267.759C729.133 267.162 728.645 267.657 729.334 266.437C730.581 271.801 729.618 273.93 727.736 278.985C726.154 285.09 721.466 284.857 720.732 288.33L721.507 289.258C719.381 289.773 714.684 289.72 712.466 289.351C711.274 288.843 710.066 288.291 708.88 287.763C705.247 286.907 702.044 287.002 698.357 287.192C697.415 281.301 697.355 279.627 693.801 275.009L692.67 275.074C686.282 274.105 681.184 266.573 675.122 272.777C678.04 274.322 679.909 275.415 682.652 277.243L683.047 277.961C682.061 278.378 681.076 278.557 680.65 279.285C679.369 283.46 678.573 284.62 675.181 287.444C671.948 289.47 670.218 290.719 666.325 291.113C664.357 289.899 661.807 288.661 659.71 287.575C655.939 286.893 654.03 286.663 650.205 286.51C650.985 286.047 652.222 285.243 653.055 285.036C658.761 283.612 657.29 277.16 656.636 272.444C653.528 263.364 645.417 269.339 638.994 266.807C634.277 264.948 632.325 261.505 626.739 260.687C626.184 258.19 625.987 256.678 625.708 254.162C625.31 251.372 625.596 250.59 626.212 247.937L626.537 246.365L626.019 245.201L624.74 245.389C621.866 245.824 621.175 246.449 618.935 245.372L618.175 244.851L618.729 243.737C617.999 241.566 617.356 241.669 615.208 240.124C614.262 239.718 613.759 239.755 612.724 239.631C610.444 242.527 608.189 244.242 605.389 246.567L604.336 242.38C605.039 237.368 604.301 239.903 608.661 235.521C608.943 233.924 608.787 233.81 608.033 232.278C606.268 228.716 605.838 228.371 605.383 224.375C604.075 226.579 603.491 228.477 600.687 228.25C597.676 225.904 598.588 225.543 596.53 223.552C600.72 220.226 608.368 212.77 606.872 206.71L614.647 196.462C618.86 196.756 621.258 196.878 625.477 196.638C625.345 188.258 621.234 189.947 618.958 182.02Z"/><path fill="#2E0400" transform="matrix(0.657133 0 0 0.657133 -172.169 -101.856)" d="M683.091 228.436C689.04 234.083 691.622 236.246 699.572 238.606C703.58 243.272 705.279 246.536 708.419 251.748C716.259 255.085 718.218 256.629 720.177 265.245C722.652 266.41 724.948 267.787 727.644 267.759C729.133 267.162 728.645 267.657 729.334 266.437C730.581 271.801 729.618 273.93 727.736 278.985C726.154 285.09 721.466 284.857 720.732 288.33L721.507 289.258C719.381 289.773 714.684 289.72 712.466 289.351C711.274 288.843 710.066 288.291 708.88 287.763C705.247 286.907 702.044 287.002 698.357 287.192C697.415 281.301 697.355 279.627 693.801 275.009C696.745 269.377 698.815 272.367 698.29 263.868C698.262 262.369 697.731 258.577 697.541 256.924L686.007 243.972C684.799 245.179 684.665 246.909 684.266 248.668C678.922 248.967 674.981 249.118 669.643 248.935C670.427 246.056 671.96 241.052 671.215 238.266C671.689 235.565 672.781 232.925 673.729 230.34C678.688 227.707 677.684 229.203 682.637 228.503L683.091 228.436Z"/><path fill="#811901" transform="matrix(0.657133 0 0 0.657133 -172.169 -101.856)" d="M712.466 289.351C715.789 285.858 713.694 279.532 714.212 275.312C714.385 273.896 715.955 270.286 716.569 268.837C719.287 275.992 719.154 280.524 727.736 278.985C726.154 285.09 721.466 284.857 720.732 288.33L721.507 289.258C719.381 289.773 714.684 289.72 712.466 289.351Z"/><path fill="#C54C03" transform="matrix(0.657133 0 0 0.657133 -172.169 -101.856)" d="M710.77 271.894C712.704 270.019 714.19 266.964 716.206 266.038L716.766 266.959L716.569 268.837C715.955 270.286 714.385 273.896 714.212 275.312C713.694 279.532 715.789 285.858 712.466 289.351C711.274 288.843 710.066 288.291 708.88 287.763L707.6 285.709C706.398 285.273 705.914 285.402 704.653 285.494L704.199 285.53C703.651 284.051 704.285 282.854 704.723 281.063C706.793 276.663 707.321 275.308 710.77 271.894Z"/><path fill="#B22E01" transform="matrix(0.657133 0 0 0.657133 -172.169 -101.856)" d="M698.29 263.868C698.673 265.075 699.166 266.927 699.752 267.979C700.177 270.002 699.916 270.63 701.252 271.688C699.47 272.365 700.113 271.802 699.156 273.31C699.084 277.241 701.678 279.19 704.723 281.063C704.285 282.854 703.651 284.051 704.199 285.53L704.653 285.494C705.914 285.402 706.398 285.273 707.6 285.709L708.88 287.763C705.247 286.907 702.044 287.002 698.357 287.192C697.415 281.301 697.355 279.627 693.801 275.009C696.745 269.377 698.815 272.367 698.29 263.868Z"/><path fill="#811901" transform="matrix(0.657133 0 0 0.657133 -172.169 -101.856)" d="M701.252 271.688C705.606 270.566 705.926 270.544 707.908 266.477C708.151 269.328 708.227 270.441 710.77 271.894C707.321 275.308 706.793 276.663 704.723 281.063C701.678 279.19 699.084 277.241 699.156 273.31C700.113 271.802 699.47 272.365 701.252 271.688Z"/><path fill="#520F01" transform="matrix(0.657133 0 0 0.657133 -172.169 -101.856)" d="M707.449 262.096C710.769 264.631 714.731 262.301 717.279 266.027L716.766 266.959L716.206 266.038C714.19 266.964 712.704 270.019 710.77 271.894C708.227 270.441 708.151 269.328 707.908 266.477C708.071 264.62 707.83 263.952 707.449 262.096Z"/><path fill="#FA5601" transform="matrix(0.657133 0 0 0.657133 -172.169 -101.856)" d="M699.752 267.979C701.937 265.793 704.072 262.872 706.598 261.234L707.449 262.096C707.83 263.952 708.071 264.62 707.908 266.477C705.926 270.544 705.606 270.566 701.252 271.688C699.916 270.63 700.177 270.002 699.752 267.979Z"/><path fill="#520F01" transform="matrix(0.657133 0 0 0.657133 -172.169 -101.856)" d="M625.477 196.638C624.885 200.133 624.276 201.943 622.286 204.994C616.579 210.618 608.169 217.289 605.383 224.375C604.075 226.579 603.491 228.477 600.687 228.25C597.676 225.904 598.588 225.543 596.53 223.552C600.72 220.226 608.368 212.77 606.872 206.71L614.647 196.462C618.86 196.756 621.258 196.878 625.477 196.638Z"/><path fill="#FD8F03" transform="matrix(0.657133 0 0 0.657133 -172.169 -101.856)" d="M619.298 221.054C619.555 221.622 619.791 222.123 620.077 222.681L620.42 223.338C623.155 228.66 629.623 229.901 631.76 236.646C630.092 239.924 628.35 243.164 626.537 246.365L626.019 245.201L624.74 245.389C621.866 245.824 621.175 246.449 618.935 245.372L618.175 244.851L618.729 243.737C617.999 241.566 617.356 241.669 615.208 240.124C614.262 239.718 613.759 239.755 612.724 239.631C613.185 235.592 617.442 224.712 619.298 221.054Z"/><path fill="#FEA705" transform="matrix(0.657133 0 0 0.657133 -172.169 -101.856)" d="M618.935 245.372C622.903 243.861 626.121 237.597 630.092 235.82L631.76 236.646C630.092 239.924 628.35 243.164 626.537 246.365L626.019 245.201L624.74 245.389C621.866 245.824 621.175 246.449 618.935 245.372Z"/><path fill="#FD8F03" transform="matrix(0.657133 0 0 0.657133 -172.169 -101.856)" d="M663.547 281.057C663.843 276.817 661.53 274.287 659.514 270.09L660.183 268.702C661.687 270.487 664.223 274.089 665.918 275.052C671.663 275.819 676.106 275.731 680.65 279.285C679.369 283.46 678.573 284.62 675.181 287.444C671.948 289.47 670.218 290.719 666.325 291.113C664.357 289.899 661.807 288.661 659.71 287.575C661.301 285.256 662.226 283.525 663.547 281.057Z"/><path fill="#FB7302" transform="matrix(0.657133 0 0 0.657133 -172.169 -101.856)" d="M663.547 281.057C664.592 283.114 666.076 287.164 667.604 288.338C669.245 287.661 668.678 288.1 669.644 286.364C671.374 287.733 672.883 287.431 675.181 287.444C671.948 289.47 670.218 290.719 666.325 291.113C664.357 289.899 661.807 288.661 659.71 287.575C661.301 285.256 662.226 283.525 663.547 281.057Z"/><path fill="#FC6801" transform="matrix(0.657133 0 0 0.657133 -172.169 -101.856)" d="M663.547 281.057C663.843 276.817 661.53 274.287 659.514 270.09L660.183 268.702C661.687 270.487 664.223 274.089 665.918 275.052L664.495 276.02C664.057 279.008 667.846 283.774 669.644 286.364C668.678 288.1 669.245 287.661 667.604 288.338C666.076 287.164 664.592 283.114 663.547 281.057Z"/><path fill="#4B0E01" transform="matrix(0.657133 0 0 0.657133 -172.169 -101.856)" d="M659.142 254.803C662.239 249.195 667.332 244.355 671.215 238.266C671.96 241.052 670.427 246.056 669.643 248.935C674.981 249.118 678.922 248.967 684.266 248.668C682.951 253.534 678.069 262.484 671.582 260.224C670.355 259.796 667.732 256.885 666.722 255.816L659.142 254.803Z"/><path fill="#F64B00" transform="matrix(0.657133 0 0 0.657133 -172.169 -101.856)" d="M658.141 257.277C663.666 261.33 665.826 261.449 671.53 264.526C671.803 265.326 672.167 265.741 672.738 266.355L670.595 266.582L669.828 267.553C670.289 270.096 673.031 271.561 675.122 272.777C678.04 274.322 679.909 275.415 682.652 277.243L683.047 277.961C682.061 278.378 681.076 278.557 680.65 279.285C676.106 275.731 671.663 275.819 665.918 275.052C664.223 274.089 661.687 270.487 660.183 268.702C658.084 265.832 656.158 265.682 652.708 264.656C654.706 261.457 655.679 260.146 658.141 257.277Z"/><path fill="#FEA705" transform="matrix(0.657133 0 0 0.657133 -172.169 -101.856)" d="M672.738 266.355C675.472 267.193 678.132 268.026 680.906 268.73C681.949 268.031 682.487 267.661 683.474 266.842C684.915 268.078 692.246 274.189 692.67 275.074C686.282 274.105 681.184 266.573 675.122 272.777C673.031 271.561 670.289 270.096 669.828 267.553L670.595 266.582L672.738 266.355Z"/><path fill="#B22E01" transform="matrix(0.657133 0 0 0.657133 -172.169 -101.856)" d="M626.212 247.937C628.443 248.571 630.418 248.943 631.428 251.236C632.712 254.153 633.682 256.758 630.716 258.701C627.58 258.133 627.236 256.769 625.708 254.162C625.31 251.372 625.596 250.59 626.212 247.937Z"/><path transform="matrix(0.657133 0 0 0.657133 -172.169 -101.856)" d="M674.93 219.361C677.745 222.335 680.561 225.209 683.091 228.436L682.637 228.503C677.684 229.203 678.688 227.707 673.729 230.34C674.713 225.837 674.774 223.875 674.93 219.361Z"/><path fill="#FEA705" transform="matrix(0.657133 0 0 0.657133 -172.169 -101.856)" d="M622.498 208.549C629.291 201.464 627.65 199.591 627.8 190.256C632.598 195.776 638.07 199.984 635.132 207.821C633.93 211.026 631.38 220.017 628.736 221.774C621.109 200.024 614.456 225.401 611.507 224.803C608.279 218.181 618.239 212.485 622.498 208.549Z"/><path fill="#B22E01" transform="matrix(0.657133 0 0 0.657133 -172.169 -101.856)" d="M648.433 246.012C650.23 246.439 650.338 246.583 651.892 247.657C653.965 251.978 650.468 254.4 647.425 257.235C649.145 259.883 650.111 260.515 649.298 263.435C646.691 262.827 644.915 262.076 643.474 259.769C639.447 253.321 643.623 249.204 648.433 246.012Z"/><path fill="#C54C03" transform="matrix(0.657133 0 0 0.657133 -172.169 -101.856)" d="M780.133 321.76C787.354 325.071 789.96 316.686 791.644 311.914L792.302 312.088L793.29 315.066L793.968 314.886C793.972 319.411 793.116 325.836 796.07 328.917C799.342 330.573 806.527 328.508 809.83 327.111L810.288 325.6C815.825 326.849 818.912 327.995 823.747 331.085C824.158 331.348 826.901 330.386 827.603 331.184C825.206 331.975 825.451 331.495 824.08 333.142C825.201 337.735 830.077 337.794 833.739 338.989C834.491 339.235 840.27 344.118 840.589 344.617C841.146 347.621 842.612 348.831 844.873 350.687C848.854 353.955 904.615 361.227 915.226 363.766C912.134 371.02 908.538 378.971 905.694 386.255L925.814 448.03C929.062 457.961 932.435 469.34 936.354 478.928C940.629 489.387 954.203 505.639 958.211 515.768C930.462 521.474 934.271 521.229 906.828 514.556C893.425 511.28 879.976 508.193 866.486 505.296C832.959 498.057 799.909 493.379 765.914 489.18C764.131 487.156 760.81 482.771 758.515 481.942C757.487 482.729 757.584 482.725 757.108 483.951L755.318 481.875C755.929 479.167 757.294 475.923 758.315 473.275L767.056 484.453C776.762 486.276 787.032 486.988 796.771 488.522C814.277 491.28 832.997 493.746 850.337 497.17C866.744 500.519 883.107 504.08 899.422 507.853C909.559 510.276 920.506 513.208 930.715 514.912C935.128 515.649 945.249 513.148 950.164 512.121C943.357 499.147 931.37 484.892 927.523 471.365C919.336 442.58 908.314 414.273 899.927 385.649C902.375 379.327 905.294 373.076 908.095 366.892C884.959 363 861.762 359.482 838.512 356.338C829.481 355.158 820.215 354.41 811.258 353.187L799.12 352.04L792.559 351.278C790.881 348.319 791.515 346.925 792.394 343.86C786.717 342.282 788.755 340.823 785.074 336.28C783.391 336.916 784.112 336.403 783.02 338.092C779.601 339.331 776.586 338.622 774.246 335.81L776.083 334.899C780.182 330.413 780.129 327.555 780.133 321.76Z"/><defs><linearGradient id="gradient_1" gradientUnits="userSpaceOnUse" x1="827.25146" y1="358.26874" x2="787.32147" y2="322.79764"><stop offset="0" stop-color="#260401"/><stop offset="1" stop-color="#711501"/></linearGradient></defs><path fill="url(#gradient_1)" transform="matrix(0.657133 0 0 0.657133 -172.169 -101.856)" d="M780.133 321.76C787.354 325.071 789.96 316.686 791.644 311.914L792.302 312.088L793.29 315.066L793.968 314.886C793.972 319.411 793.116 325.836 796.07 328.917C799.342 330.573 806.527 328.508 809.83 327.111L810.288 325.6C815.825 326.849 818.912 327.995 823.747 331.085C824.158 331.348 826.901 330.386 827.603 331.184C825.206 331.975 825.451 331.495 824.08 333.142C825.201 337.735 830.077 337.794 833.739 338.989C834.491 339.235 840.27 344.118 840.589 344.617C838.395 349.74 836.883 351.03 831.346 351.084C830.101 348.848 828.214 345.843 825.966 344.563L824.989 345.136C822.955 346.183 820.59 347.326 818.622 348.428C817.38 343.242 817.473 338.779 817.715 333.559C815.733 334.836 815.083 335.331 812.756 336.052C810.776 335.756 810.473 335.233 809.055 333.788L808.598 333.317C807.116 333.769 806.756 335.222 805.754 336.94C800.769 339.3 798.471 338.864 793.585 340.747C792.687 341.093 792.685 342.555 792.394 343.86C786.717 342.282 788.755 340.823 785.074 336.28C783.391 336.916 784.112 336.403 783.02 338.092C779.601 339.331 776.586 338.622 774.246 335.81L776.083 334.899C780.182 330.413 780.129 327.555 780.133 321.76Z"/><path fill="#F64B00" transform="matrix(0.657133 0 0 0.657133 -172.169 -101.856)" d="M780.133 321.76C787.354 325.071 789.96 316.686 791.644 311.914L792.302 312.088L793.29 315.066C793.957 326.263 787.393 334.279 776.083 334.899C780.182 330.413 780.129 327.555 780.133 321.76Z"/><path fill="#FECF21" transform="matrix(0.657133 0 0 0.657133 -172.169 -101.856)" d="M797.08 345.245C799.359 344.4 806.867 341.208 808.548 341.739C809.667 348.47 812.739 344.278 814.436 348.013C814.073 349.9 812.5 351.62 811.258 353.187L799.12 352.04L797.08 345.245Z"/><path fill="#B22E01" transform="matrix(0.657133 0 0 0.657133 -172.169 -101.856)" d="M824.989 345.136L825.966 344.563C828.214 345.843 830.101 348.848 831.346 351.084C828.599 349.917 827.36 350.093 824.662 350.976C825.21 348.964 825.033 347.225 824.989 345.136Z"/><path fill="#C54C03" transform="matrix(0.657133 0 0 0.657133 -172.169 -101.856)" d="M403.973 332.414C403.865 333.092 403.882 333.467 403.601 334.053C402.306 339.361 409.787 342.694 413.786 345.412C411.407 345.729 406.004 346.299 403.891 346.83C402.164 347.919 402.746 347.345 401.789 349.136L403.893 351.556C402.891 354.136 401.937 356.734 401.032 359.349C399.509 363.258 398.067 367.198 396.706 371.167C394.236 365.827 391.209 358.801 388.232 353.904C370.588 355.492 328.879 363.272 311.97 368.363C313.421 371.037 321.968 385.352 321.963 387.439C321.898 415.502 320.48 450.3 318.059 477.89C317.925 479.42 302.897 507.58 301.252 511.195C303.672 511.727 315.721 514.678 318.945 514.055C337.138 510.542 357.938 503.965 376.07 499.225C376.428 499.131 379.857 495.85 380.787 495.26C381.788 495.67 385.032 497.02 385.94 496.869C413.946 492.213 443.101 489.569 470.933 484.247C472.16 482.455 474.017 479.112 475.871 478.575L477.642 478.937C476.91 482.816 473.306 484.926 472.135 489.023C470.971 489.426 450.424 491.677 447.602 492.101C428.855 494.921 409.567 497.342 390.935 500.76C375.969 503.506 359.691 508.729 344.848 512.647C337.466 514.595 327.252 518.302 319.881 519.206C313.496 519.989 299.771 516.625 293.045 515.157C299.182 502.282 307.424 488.843 312.748 475.838C314.059 472.638 314.307 456.646 314.549 452.032L317.509 389.202C312.8 381.69 308.632 373.913 304.367 366.143C321.057 360.485 338.641 357.251 355.863 353.81C360.818 352.82 381.331 349.514 384.041 347.528L384.655 347.525C384.396 345.583 384.229 345.362 383.092 343.751C390.541 338.654 392.894 333.646 403.973 332.414Z"/><path fill="#520F01" transform="matrix(0.657133 0 0 0.657133 -172.169 -101.856)" d="M403.973 332.414C403.865 333.092 403.882 333.467 403.601 334.053C402.306 339.361 409.787 342.694 413.786 345.412C411.407 345.729 406.004 346.299 403.891 346.83C402.164 347.919 402.746 347.345 401.789 349.136C395.865 348.604 391.184 345.733 386.367 345.177L386.337 346.233L385.842 347.714L384.655 347.525C384.396 345.583 384.229 345.362 383.092 343.751C390.541 338.654 392.894 333.646 403.973 332.414Z"/><path fill="#E9E7E8" transform="matrix(0.657133 0 0 0.657133 -172.169 -101.856)" d="M398.321 335.729C398.953 335.907 398.867 335.973 399.428 336.446C398.538 338.097 395.948 339.717 394.328 340.925C393.598 340.523 393.861 340.671 393.356 339.876C394.379 337.927 396.388 336.973 398.321 335.729Z"/><path fill="#FC6801" transform="matrix(0.657133 0 0 0.657133 -172.169 -101.856)" d="M386.337 346.233L386.367 345.177C391.184 345.733 395.865 348.604 401.789 349.136L403.893 351.556C402.891 354.136 401.937 356.734 401.032 359.349C391.905 357.283 397.606 352.735 386.337 346.233Z"/><path fill="#FEEF2D" transform="matrix(0.657133 0 0 0.657133 -172.169 -101.856)" d="M618.175 244.851L618.935 245.372C621.175 246.449 621.866 245.824 624.74 245.389L626.019 245.201L626.537 246.365L626.212 247.937C625.596 250.59 625.31 251.372 625.708 254.162C625.987 256.678 626.184 258.19 626.739 260.687C632.325 261.505 634.277 264.948 638.994 266.807C645.417 269.339 653.528 263.364 656.636 272.444C657.29 277.16 658.761 283.612 653.055 285.036C652.222 285.243 650.985 286.047 650.205 286.51C647.526 287.416 644.847 288.005 642.098 288.66C637.8 290.675 635.421 291.728 631.47 294.478L628.4 298.024L626.322 296.012C622.171 292.909 621.397 288.939 618.301 287.291C617.403 288.669 617.33 288.705 616.113 289.841C614.861 289.079 614.953 289.127 613.484 289.036C611.137 290.206 611.951 289.492 610.532 292.071L609.716 292.287C607.697 291.099 607.062 289.844 605.709 287.926C605.752 286.743 606.027 285.822 606.299 284.677C603.63 284.663 603.345 284.47 601.185 282.872C602.203 281.535 602.189 281.407 602.609 279.742C601.742 277.754 602.156 278.427 600.035 277.106C598.778 276.885 599.254 277.032 598.152 276.25L598.483 275.252C598.316 274.604 598.374 274.626 598.033 274.076C595.766 270.416 595.823 266.735 595.608 262.497C596.427 261.916 597.421 261.413 598.31 260.918C601.511 260.178 601.053 260.763 603.13 258.711C603.978 255.444 604.513 254.71 606.32 251.832L609.559 250.103L611.361 249.933L612.683 248.563C614.899 246.446 615.274 245.997 618.175 244.851Z"/><path fill="#FECF21" transform="matrix(0.657133 0 0 0.657133 -172.169 -101.856)" d="M618.175 244.851L618.935 245.372C621.175 246.449 621.866 245.824 624.74 245.389C623.7 246.217 622.284 247.435 621.18 248.091C619.784 249.57 618.542 250.523 618.107 252.446L618.317 253.24C619.23 256.76 620.345 263.694 617.737 266.659C613.65 266.39 610.211 260.362 610.747 256.579C611.028 254.602 611.525 252.846 610.744 250.985L609.559 250.103L611.361 249.933L612.683 248.563C614.899 246.446 615.274 245.997 618.175 244.851Z"/><path fill="#FEBE10" transform="matrix(0.657133 0 0 0.657133 -172.169 -101.856)" d="M618.175 244.851L618.935 245.372C621.175 246.449 621.866 245.824 624.74 245.389C623.7 246.217 622.284 247.435 621.18 248.091C617.667 248.393 613.368 250.23 611.361 249.933L612.683 248.563C614.899 246.446 615.274 245.997 618.175 244.851Z"/><path fill="#FB7302" transform="matrix(0.657133 0 0 0.657133 -172.169 -101.856)" d="M626.739 260.687C632.325 261.505 634.277 264.948 638.994 266.807C645.417 269.339 653.528 263.364 656.636 272.444L654.613 274.007C652.297 274.585 650.53 273.561 648.193 272.673C638.052 270.983 631.45 270.849 626.739 260.687Z"/><path fill="#FEA705" transform="matrix(0.657133 0 0 0.657133 -172.169 -101.856)" d="M621.75 273.802C627.016 273.949 633.726 279.235 638.078 280.818C637.346 283.405 633.976 284.971 631.499 286.5C631.372 288.914 631.06 292.186 631.47 294.478L628.4 298.024L626.322 296.012C627.397 293.596 627.129 291.073 627.021 288.473C629.515 280.664 626.409 279.69 621.75 273.802Z"/><path fill="#FEE94A" transform="matrix(0.657133 0 0 0.657133 -172.169 -101.856)" d="M648.193 272.673C650.53 273.561 652.297 274.585 654.613 274.007L656.636 272.444C657.29 277.16 658.761 283.612 653.055 285.036C652.222 285.243 650.985 286.047 650.205 286.51C647.526 287.416 644.847 288.005 642.098 288.66C644.701 285.265 648.896 286.151 650.941 282.215C652.473 279.266 648.943 275.903 648.193 272.673Z"/><path fill="#FECF21" transform="matrix(0.657133 0 0 0.657133 -172.169 -101.856)" d="M621.75 273.802C619.782 271.337 618.597 269.156 620.95 266.524C625.126 266.562 636.622 277.116 638.078 280.818C633.726 279.235 627.016 273.949 621.75 273.802Z"/><path fill="#FEA705" transform="matrix(0.657133 0 0 0.657133 -172.169 -101.856)" d="M598.31 260.918C601.511 260.178 601.053 260.763 603.13 258.711C603.054 262.24 602.893 265.767 602.648 269.289C601.693 270.702 599.476 274.137 598.483 275.252C598.316 274.604 598.374 274.626 598.033 274.076C595.766 270.416 595.823 266.735 595.608 262.497C596.427 261.916 597.421 261.413 598.31 260.918Z"/><path fill="#FECF21" transform="matrix(0.657133 0 0 0.657133 -172.169 -101.856)" d="M600.035 277.106C605.485 276.018 605.194 270.885 608.236 272.194C609.462 276.657 609.165 280.931 606.299 284.677C603.63 284.663 603.345 284.47 601.185 282.872C602.203 281.535 602.189 281.407 602.609 279.742C601.742 277.754 602.156 278.427 600.035 277.106Z"/><path fill="#FEA705" transform="matrix(0.657133 0 0 0.657133 -172.169 -101.856)" d="M618.301 287.291C618.863 285.321 618.916 284.816 619.996 283.123C622.376 283.061 624.218 287.086 627.021 288.473C627.129 291.073 627.397 293.596 626.322 296.012C622.171 292.909 621.397 288.939 618.301 287.291Z"/><path fill="#2E0400" transform="matrix(0.657133 0 0 0.657133 -172.169 -101.856)" d="M573.151 243.992C572.817 240.221 570.718 231.341 571.866 228.549C575.31 220.172 599.582 210.999 606.24 207.085L606.872 206.71C608.368 212.77 600.72 220.226 596.53 223.552C598.588 225.543 597.676 225.904 600.687 228.25C603.491 228.477 604.075 226.579 605.383 224.375C605.838 228.371 606.268 228.716 608.033 232.278C608.787 233.81 608.943 233.924 608.661 235.521C604.301 239.903 605.039 237.368 604.336 242.38L605.389 246.567L602.739 248.565L603.192 250.08C605.211 250.784 605.272 250.431 606.32 251.832C604.513 254.71 603.978 255.444 603.13 258.711C601.053 260.763 601.511 260.178 598.31 260.918C597.421 261.413 596.427 261.916 595.608 262.497C595.379 265.188 595.784 265.841 594.354 267.708C591.417 268.656 589.576 266.449 584.405 267.017C581.241 267.867 581.332 269.204 580.892 272.279L579.258 271.814C578.93 272.122 578.087 272.869 577.861 273.181C572.507 266.826 567.976 264.805 560.083 263.139C558.86 261.916 558.941 261.962 558.468 260.266L559.275 259.481C562.013 259.077 564.701 259.959 567.427 260.605L567.851 259.786C562.768 258.447 561.902 257.58 560.426 252.796L561.769 249.082L563.663 249.485C569.958 249.624 570.04 249.292 573.151 243.992Z"/><path fill="#F64B00" transform="matrix(0.657133 0 0 0.657133 -172.169 -101.856)" d="M590.177 249.339L590.582 250.431C593.728 252.451 601.128 249.379 603.053 246.374C603.635 245.466 601.891 244.99 604.336 242.38L605.389 246.567L602.739 248.565L603.192 250.08C605.211 250.784 605.272 250.431 606.32 251.832C604.513 254.71 603.978 255.444 603.13 258.711C601.053 260.763 601.511 260.178 598.31 260.918C597.421 261.413 596.427 261.916 595.608 262.497C595.379 265.188 595.784 265.841 594.354 267.708C591.417 268.656 589.576 266.449 584.405 267.017C581.241 267.867 581.332 269.204 580.892 272.279L579.258 271.814C578.93 272.122 578.087 272.869 577.861 273.181C572.507 266.826 567.976 264.805 560.083 263.139C558.86 261.916 558.941 261.962 558.468 260.266L559.275 259.481C562.013 259.077 564.701 259.959 567.427 260.605C570.223 262.421 575.254 263.781 576.857 259.907C576.251 256.825 575.872 257.95 573.996 254.873C574.08 252.681 574.525 252.285 575.785 250.485L576.188 249.915C579.425 252.881 576.408 257.582 581.328 259.919C585.266 257.799 582.672 253.995 583.513 249.803C583.926 247.743 584.78 245.768 585.565 243.829L586.343 245.588C588.617 246.138 589.756 245.357 592.293 244.635L590.177 249.339Z"/><path fill="#811901" transform="matrix(0.657133 0 0 0.657133 -172.169 -101.856)" d="M590.177 249.339L590.582 250.431C593.728 252.451 601.128 249.379 603.053 246.374C603.635 245.466 601.891 244.99 604.336 242.38L605.389 246.567L602.739 248.565L603.192 250.08C605.211 250.784 605.272 250.431 606.32 251.832C604.513 254.71 603.978 255.444 603.13 258.711C601.053 260.763 601.511 260.178 598.31 260.918L597.947 258.551C592.948 261.06 586.278 260.055 586.325 253.63C586.962 251.361 588.234 250.785 590.177 249.339Z"/><path fill="#FD8F03" transform="matrix(0.657133 0 0 0.657133 -172.169 -101.856)" d="M602.739 248.565L603.192 250.08C605.211 250.784 605.272 250.431 606.32 251.832C604.513 254.71 603.978 255.444 603.13 258.711C601.053 260.763 601.511 260.178 598.31 260.918L597.947 258.551L599.325 251.469C600.24 250.578 601.72 249.418 602.739 248.565Z"/><path fill="#520F01" transform="matrix(0.657133 0 0 0.657133 -172.169 -101.856)" d="M596.53 223.552C598.588 225.543 597.676 225.904 600.687 228.25C603.491 228.477 604.075 226.579 605.383 224.375C605.838 228.371 606.268 228.716 608.033 232.278C608.787 233.81 608.943 233.924 608.661 235.521C604.301 239.903 605.039 237.368 604.336 242.38C601.891 244.99 603.635 245.466 603.053 246.374C601.128 249.379 593.728 252.451 590.582 250.431L590.177 249.339L592.293 244.635C592.077 241.572 591.842 241.132 590.599 238.399L587.268 235.807C601.053 238.735 594.079 228.136 596.53 223.552Z"/><path fill="#4B0E01" transform="matrix(0.657133 0 0 0.657133 -172.169 -101.856)" d="M596.53 223.552C598.588 225.543 597.676 225.904 600.687 228.25C603.491 228.477 604.075 226.579 605.383 224.375C605.838 228.371 606.268 228.716 608.033 232.278L607.066 233.634C603.182 233.909 601.853 233.378 598.37 233.322C597.923 235.491 597.85 237.118 596.422 238.738C594.005 239.705 593.085 239.5 590.599 238.399L587.268 235.807C601.053 238.735 594.079 228.136 596.53 223.552Z"/><path fill="#C54C03" transform="matrix(0.657133 0 0 0.657133 -172.169 -101.856)" d="M578.3 230.52C579.339 228.694 579.325 227.877 580.903 227.439C583.791 230.235 583.432 231.934 587.268 235.807L590.599 238.399C591.842 241.132 592.077 241.572 592.293 244.635C589.756 245.357 588.617 246.138 586.343 245.588L585.565 243.829C584.78 245.768 583.926 247.743 583.513 249.803C582.672 253.995 585.266 257.799 581.328 259.919C576.408 257.582 579.425 252.881 576.188 249.915C577.691 247.769 580.613 245.003 582.546 243.049C579.021 237.499 578.191 237.01 578.3 230.52Z"/><path fill="#FC6801" transform="matrix(0.657133 0 0 0.657133 -172.169 -101.856)" d="M578.3 230.52C579.339 228.694 579.325 227.877 580.903 227.439C583.791 230.235 583.432 231.934 587.268 235.807L590.599 238.399C591.842 241.132 592.077 241.572 592.293 244.635C589.756 245.357 588.617 246.138 586.343 245.588L585.565 243.829C581.385 238.78 581.673 235.687 578.3 230.52Z"/><path fill="#C54C03" transform="matrix(0.657133 0 0 0.657133 -172.169 -101.856)" d="M561.769 249.082L563.663 249.485C563.196 250.27 562.837 251.224 562.171 251.536C562.364 255.434 565.304 256.89 568.252 258.919L567.851 259.786C562.768 258.447 561.902 257.58 560.426 252.796L561.769 249.082Z"/><path fill="#FB7302" transform="matrix(0.657133 0 0 0.657133 -172.169 -101.856)" d="M416.334 325.419C421.672 320.215 419.078 319.702 426.374 320.469C427.141 318.748 427.617 317.362 428.226 315.589C430.623 314.486 432.595 317.498 435.885 316.664C439.728 315.69 441.175 312.494 445.09 311.795C447.231 312.25 447.442 312.705 449.091 314.315C452.442 316.859 463.058 317.3 467.235 315.847C465.797 318.642 463.721 322.357 462.815 325.27C461.566 328.869 460.669 331.931 459.654 335.591L458.37 344.56L449.35 345.534C439.562 346.711 428.009 347.883 418.379 349.504C416.926 348.368 415.213 346.689 413.786 345.412C409.787 342.694 402.306 339.361 403.601 334.053C403.882 333.467 403.865 333.092 403.973 332.414C402.851 331.706 401.327 331.049 400.951 330.032C411.238 332.23 403.829 325.743 416.334 325.419Z"/><path fill="#520F01" transform="matrix(0.657133 0 0 0.657133 -172.169 -101.856)" d="M449.091 314.315C452.442 316.859 463.058 317.3 467.235 315.847C465.797 318.642 463.721 322.357 462.815 325.27C461.566 328.869 460.669 331.931 459.654 335.591L458.37 344.56L449.35 345.534L448.845 340.53C447.715 338.366 447.572 337.596 447.078 335.216C444.948 333.58 443.341 333.958 440.27 333.641C435.69 332.956 434.819 330.075 433.133 326.339C438.009 321.463 445.672 326.023 449.726 318.952C448.69 316.961 448.802 316.571 449.091 314.315Z"/><path fill="#811901" transform="matrix(0.657133 0 0 0.657133 -172.169 -101.856)" d="M446.577 331.379C451.364 332.073 455.568 336.049 459.654 335.591L458.37 344.56L449.35 345.534L448.845 340.53C447.715 338.366 447.572 337.596 447.078 335.216C444.948 333.58 443.341 333.958 440.27 333.641C442.569 333.413 445.407 333.534 446.577 331.379Z"/><path fill="#B22E01" transform="matrix(0.657133 0 0 0.657133 -172.169 -101.856)" d="M448.845 340.53C451.806 340.808 455.693 339.618 457.653 340.639C458.539 341.933 458.354 342.965 458.37 344.56L449.35 345.534L448.845 340.53Z"/><path fill="#2E0400" transform="matrix(0.657133 0 0 0.657133 -172.169 -101.856)" d="M449.091 314.315C452.442 316.859 463.058 317.3 467.235 315.847C465.797 318.642 463.721 322.357 462.815 325.27L461.772 324.758C457.097 320.57 454.3 326.265 450.708 318.948L449.726 318.952C448.69 316.961 448.802 316.571 449.091 314.315Z"/><path fill="#B22E01" transform="matrix(0.657133 0 0 0.657133 -172.169 -101.856)" d="M461.772 324.758L462.815 325.27C461.566 328.869 460.669 331.931 459.654 335.591C455.568 336.049 451.364 332.073 446.577 331.379C446.967 329.28 446.925 328.384 448.368 326.813C450.623 326.685 451.18 328.842 452.736 329.163C455.572 329.749 458.503 326.132 461.772 324.758Z"/><path fill="#2E0400" transform="matrix(0.657133 0 0 0.657133 -172.169 -101.856)" d="M416.334 325.419C421.672 320.215 419.078 319.702 426.374 320.469C427.141 318.748 427.617 317.362 428.226 315.589C430.623 314.486 432.595 317.498 435.885 316.664C439.728 315.69 441.175 312.494 445.09 311.795C447.231 312.25 447.442 312.705 449.091 314.315C448.802 316.571 448.69 316.961 449.726 318.952C445.672 326.023 438.009 321.463 433.133 326.339C422.683 331.062 421.112 321.366 417.942 341.032L417.272 340.733C410.646 337.825 407.076 339.95 403.601 334.053C403.882 333.467 403.865 333.092 403.973 332.414C402.851 331.706 401.327 331.049 400.951 330.032C411.238 332.23 403.829 325.743 416.334 325.419Z"/><path fill="#FEE94A" transform="matrix(0.657133 0 0 0.657133 -172.169 -101.856)" d="M428.404 336.573C432.464 336.333 439.166 335.732 441.586 339.527C441.138 341.698 440.795 341.481 439.06 343.23C435.325 344.006 428.513 343.11 426.475 339.468C426.766 337.523 426.563 338.203 428.404 336.573Z"/><path fill="#2E0400" transform="matrix(0.657133 0 0 0.657133 -172.169 -101.856)" d="M637.739 478.318C642.024 477.759 678.333 478.504 682.119 479.522C687.666 479.704 694.247 479.767 699.668 480.374C705.294 480.15 711.58 480.143 717.158 480.917C722.847 481.399 751.952 484.349 754.788 482.858L755.318 481.875L757.108 483.951C756.575 484.815 755.936 486.058 755.221 486.674C747.023 491.625 740.667 489.694 731.445 491.096C729.732 491.356 725.984 492.528 724.227 493.062C716.469 488.638 714.239 491.292 707.248 487.34C691.474 490.304 693.941 488.217 679.685 487.919C676.213 488.82 671.83 490.774 668.01 491.63C655.183 494.506 654.698 489.558 645.904 482.315C644.682 481.309 639.592 479.124 637.739 478.318Z"/><path fill="#B22E01" transform="matrix(0.657133 0 0 0.657133 -172.169 -101.856)" d="M717.158 480.917C722.847 481.399 751.952 484.349 754.788 482.858L755.318 481.875L757.108 483.951C756.575 484.815 755.936 486.058 755.221 486.674C750.386 484.364 724.547 483.978 717.7 482.325L717.158 480.917Z"/><path fill="#B22E01" transform="matrix(0.657133 0 0 0.657133 -172.169 -101.856)" d="M682.119 479.522C687.666 479.704 694.247 479.767 699.668 480.374C697.978 481.598 682.28 484.312 679.719 484.597L682.119 479.522Z"/><path fill="#FA5601" transform="matrix(0.657133 0 0 0.657133 -172.169 -101.856)" d="M732.427 264.467L733.987 264.139C734.062 262.221 732.971 261.236 731.792 259.311C731.163 257.919 739.437 266.111 739.85 266.593C746.184 272.128 750.362 274.534 749.245 283.641C753.417 285.454 756.58 288.65 759.46 292.105C759.383 294.709 758.655 306.956 759.009 308.513C755.181 308.082 754.545 307.423 749.943 307.398C745.81 308.092 744.209 309.035 740.418 310.886C741.003 307.049 741.1 305.842 740.937 301.986C740.355 301.083 739.568 299.496 739.036 298.495C736.427 295.443 732.816 293.383 729.379 291.427C726.736 290.417 724.254 289.902 721.507 289.258L720.732 288.33C721.466 284.857 726.154 285.09 727.736 278.985C729.618 273.93 730.581 271.801 729.334 266.437C729.788 264.582 729.316 265.294 730.607 264.116L732.427 264.467Z"/><path fill="#FD8F03" transform="matrix(0.657133 0 0 0.657133 -172.169 -101.856)" d="M729.334 266.437C729.788 264.582 729.316 265.294 730.607 264.116L732.427 264.467C733.221 265.676 733.18 265.943 734.342 266.638C736.508 269.806 737.8 271.837 738.111 275.802C737.74 279.084 737.553 280.841 735.734 283.724C734.07 283.721 733.988 283.86 732.526 284.791C731.358 287.057 730.292 289.038 729.379 291.427C726.736 290.417 724.254 289.902 721.507 289.258L720.732 288.33C721.466 284.857 726.154 285.09 727.736 278.985C729.618 273.93 730.581 271.801 729.334 266.437Z"/><path fill="#FEBE10" transform="matrix(0.657133 0 0 0.657133 -172.169 -101.856)" d="M734.342 266.638C736.508 269.806 737.8 271.837 738.111 275.802C737.74 279.084 737.553 280.841 735.734 283.724C734.07 283.721 733.988 283.86 732.526 284.791C732.293 280.916 731.938 269.378 734.342 266.638Z"/><path fill="#FEEF2D" transform="matrix(0.657133 0 0 0.657133 -172.169 -101.856)" d="M732.526 284.791C733.988 283.86 734.07 283.721 735.734 283.724C739.019 287.445 740.001 288.045 745.166 288.409C744.732 290.009 743.683 294.199 743.118 295.505C741.975 296.582 740.52 298.196 739.036 298.495C736.427 295.443 732.816 293.383 729.379 291.427C730.292 289.038 731.358 287.057 732.526 284.791Z"/><path fill="#FEA705" transform="matrix(0.657133 0 0 0.657133 -172.169 -101.856)" d="M743.118 295.505C746.255 296.313 747.939 295.915 749.955 297.436C750.991 300.804 750.259 304.138 746.995 305.815C745.026 304.868 742.786 303.233 740.937 301.986C740.355 301.083 739.568 299.496 739.036 298.495C740.52 298.196 741.975 296.582 743.118 295.505Z"/><path fill="#520F01" transform="matrix(0.657133 0 0 0.657133 -172.169 -101.856)" d="M739.85 266.593C746.184 272.128 750.362 274.534 749.245 283.641C747.244 282.507 741.243 269.543 739.85 266.593Z"/><path fill="#FEA705" transform="matrix(0.657133 0 0 0.657133 -172.169 -101.856)" d="M738.111 275.802C738.47 284.351 744.508 282.766 745.166 288.409C740.001 288.045 739.019 287.445 735.734 283.724C737.553 280.841 737.74 279.084 738.111 275.802Z"/><path fill="#FA5601" transform="matrix(0.657133 0 0 0.657133 -172.169 -101.856)" d="M766.183 313.243C772.631 319.616 773.779 312.535 778.936 314.593C779.915 316.396 779.479 317.476 779.14 319.554L780.133 321.76C780.129 327.555 780.182 330.413 776.083 334.899L774.246 335.81L773.675 335.574C772.558 337.34 772.524 337.71 772.14 339.78L772.341 344.014C771.281 346.776 771.675 346.962 769.656 348.664C768.229 348.759 767.155 348.807 765.726 348.792L761.737 348.625L760.942 347.745C759.951 343.909 754.655 342.5 750.805 339.392L750.362 339.03C756.165 332.553 764.367 324.841 764.586 315.898C764.864 314.533 765.26 314.269 766.183 313.243Z"/><path fill="#FEE94A" transform="matrix(0.657133 0 0 0.657133 -172.169 -101.856)" d="M769.202 332.358C772.21 330.886 772.397 330.283 775.032 330.949L773.675 335.574C772.558 337.34 772.524 337.71 772.14 339.78L772.341 344.014C771.281 346.776 771.675 346.962 769.656 348.664C768.229 348.759 767.155 348.807 765.726 348.792L761.737 348.625L760.942 347.745L762.485 343.05C764.139 339.441 766.925 335.678 769.202 332.358Z"/><path fill="#FEA705" transform="matrix(0.657133 0 0 0.657133 -172.169 -101.856)" d="M762.485 343.05C767.334 344.819 768.73 342.944 772.14 339.78L772.341 344.014C771.281 346.776 771.675 346.962 769.656 348.664C768.229 348.759 767.155 348.807 765.726 348.792L761.737 348.625L760.942 347.745L762.485 343.05Z"/><path fill="#FD8F03" transform="matrix(0.657133 0 0 0.657133 -172.169 -101.856)" d="M778.352 316.774L779.14 319.554L780.133 321.76C780.129 327.555 780.182 330.413 776.083 334.899L774.246 335.81L773.675 335.574L775.032 330.949C775.999 326.297 778.703 321.137 778.352 316.774Z"/><path fill="#FEA705" transform="matrix(0.657133 0 0 0.657133 -172.169 -101.856)" d="M769.202 332.358C771.59 328.222 775.605 318.568 777.045 316.53L778.352 316.774C778.703 321.137 775.999 326.297 775.032 330.949C772.397 330.283 772.21 330.886 769.202 332.358Z"/><path fill="#2E0400" transform="matrix(0.657133 0 0 0.657133 -172.169 -101.856)" d="M547.982 252.661C553.549 248.591 554.898 247.351 561.769 249.082L560.426 252.796C561.902 257.58 562.768 258.447 567.851 259.786L567.427 260.605C564.701 259.959 562.013 259.077 559.275 259.481L558.468 260.266C558.941 261.962 558.86 261.916 560.083 263.139C556.686 263.42 549.991 262.666 544.935 262.973C540.421 263.756 533.225 265.21 528.866 265.592C530.913 259.054 536.593 254.634 542 250.852L547.982 252.661Z"/><path fill="#520F01" transform="matrix(0.657133 0 0 0.657133 -172.169 -101.856)" d="M544.935 262.973C544.46 261.805 544.165 260.78 543.791 259.583C545.259 258.008 548.074 259.818 549.421 259.124C553.873 256.832 555.355 254.518 560.426 252.796C561.902 257.58 562.768 258.447 567.851 259.786L567.427 260.605C564.701 259.959 562.013 259.077 559.275 259.481L558.468 260.266C558.941 261.962 558.86 261.916 560.083 263.139C556.686 263.42 549.991 262.666 544.935 262.973Z"/><path fill="#520F01" transform="matrix(0.657133 0 0 0.657133 -172.169 -101.856)" d="M477.642 478.937C489.41 486.308 508.124 482.648 519.79 481.992C515.68 484.359 513.053 485.365 508.679 487.096C507.847 489.498 508.039 490.16 506.288 491.689C500.073 492.786 489.46 489.528 482.891 488.915C479.238 488.575 475.793 488.757 472.135 489.023C473.306 484.926 476.91 482.816 477.642 478.937Z"/><path fill="#FEBE10" transform="matrix(0.657133 0 0 0.657133 -172.169 -101.856)" d="M675.122 272.777C681.184 266.573 686.282 274.105 692.67 275.074L693.801 275.009C697.355 279.627 697.415 281.301 698.357 287.192L693.377 288.202C689.545 289.51 686.967 290.403 683.263 292.136L684.533 284.417C685.018 281.313 684.904 280.476 683.047 277.961L682.652 277.243C679.909 275.415 678.04 274.322 675.122 272.777Z"/><path fill="#FEEF2D" transform="matrix(0.657133 0 0 0.657133 -172.169 -101.856)" d="M682.652 277.243L682.719 275.168C687.659 271.952 693.363 283.185 693.377 288.202C689.545 289.51 686.967 290.403 683.263 292.136L684.533 284.417C685.018 281.313 684.904 280.476 683.047 277.961L682.652 277.243Z"/><path fill="#B22E01" transform="matrix(0.657133 0 0 0.657133 -172.169 -101.856)" d="M773.675 335.574L774.246 335.81C776.586 338.622 779.601 339.331 783.02 338.092C784.112 336.403 783.391 336.916 785.074 336.28C788.755 340.823 786.717 342.282 792.394 343.86C791.515 346.925 790.881 348.319 792.559 351.278C784.83 350.748 773.319 349.737 765.726 348.792C767.155 348.807 768.229 348.759 769.656 348.664C771.675 346.962 771.281 346.776 772.341 344.014L772.14 339.78C772.524 337.71 772.558 337.34 773.675 335.574Z"/><path fill="#FA5601" transform="matrix(0.657133 0 0 0.657133 -172.169 -101.856)" d="M773.675 335.574L774.246 335.81C776.586 338.622 779.601 339.331 783.02 338.092C783.713 339.909 783.784 339.984 783.435 341.836C780.298 345.158 776.343 343.32 772.341 344.014L772.14 339.78C772.524 337.71 772.558 337.34 773.675 335.574Z"/><path fill="#FA5601" transform="matrix(0.657133 0 0 0.657133 -172.169 -101.856)" d="M595.743 279.164C596.585 277.992 597.181 277.324 598.152 276.25C599.254 277.032 598.778 276.885 600.035 277.106C602.156 278.427 601.742 277.754 602.609 279.742C602.189 281.407 602.203 281.535 601.185 282.872C603.345 284.47 603.63 284.663 606.299 284.677C606.027 285.822 605.752 286.743 605.709 287.926C607.062 289.844 607.697 291.099 609.716 292.287L610.532 292.071C611.951 289.492 611.137 290.206 613.484 289.036C614.953 289.127 614.861 289.079 616.113 289.841C617.33 288.705 617.403 288.669 618.301 287.291C621.397 288.939 622.171 292.909 626.322 296.012L628.4 298.024L627.797 298.43C624.896 298.478 621.775 294.7 618.383 294.235C609.995 293.085 603.04 292.566 594.731 290.491C590.616 286.771 593.591 283.345 595.743 279.164Z"/><path fill="#FEE94A" transform="matrix(0.657133 0 0 0.657133 -172.169 -101.856)" d="M595.743 279.164C596.585 277.992 597.181 277.324 598.152 276.25C599.254 277.032 598.778 276.885 600.035 277.106C599.563 279.852 596.596 288.994 594.731 290.491C590.616 286.771 593.591 283.345 595.743 279.164Z"/><path fill="#FEE94A" transform="matrix(0.657133 0 0 0.657133 -172.169 -101.856)" d="M601.185 282.872C603.345 284.47 603.63 284.663 606.299 284.677C606.027 285.822 605.752 286.743 605.709 287.926L602.938 287.009C600.271 287.377 597.792 289.565 595.549 291.21C597.448 288.223 599.101 285.729 601.185 282.872Z"/><path fill="#C54C03" transform="matrix(0.657133 0 0 0.657133 -172.169 -101.856)" d="M680.65 279.285C681.076 278.557 682.061 278.378 683.047 277.961C684.904 280.476 685.018 281.313 684.533 284.417L683.263 292.136C679.937 294.311 676.16 297.285 672.926 299.699C670.667 295.91 669.411 294.213 666.325 291.113C670.218 290.719 671.948 289.47 675.181 287.444C678.573 284.62 679.369 283.46 680.65 279.285Z"/><path fill="#FD8F03" transform="matrix(0.657133 0 0 0.657133 -172.169 -101.856)" d="M584.405 267.017C589.576 266.449 591.417 268.656 594.354 267.708C595.784 265.841 595.379 265.188 595.608 262.497C595.823 266.735 595.766 270.416 598.033 274.076C598.374 274.626 598.316 274.604 598.483 275.252L598.152 276.25C597.181 277.324 596.585 277.992 595.743 279.164C592.46 278.082 589.222 279.203 585.347 276.503C581.164 273.59 581.368 271.263 584.405 267.017Z"/><path fill="#FA5601" transform="matrix(0.657133 0 0 0.657133 -172.169 -101.856)" d="M577.861 273.181C578.087 272.869 578.93 272.122 579.258 271.814L580.892 272.279C581.332 269.204 581.241 267.867 584.405 267.017C581.368 271.263 581.164 273.59 585.347 276.503C589.222 279.203 592.46 278.082 595.743 279.164C593.591 283.345 590.616 286.771 594.731 290.491L588.889 290.759C585.641 286.998 584.436 281.355 580.907 279.347C579.998 277.289 578.883 275.196 577.861 273.181Z"/><path fill="#B22E01" transform="matrix(0.657133 0 0 0.657133 -172.169 -101.856)" d="M742.555 347.299L750.362 339.03L750.805 339.392C754.655 342.5 759.951 343.909 760.942 347.745L761.737 348.625C755.148 347.955 749.179 347.612 742.555 347.299Z"/><path fill="#C54C03" transform="matrix(0.657133 0 0 0.657133 -172.169 -101.856)" d="M413.786 345.412C415.213 346.689 416.926 348.368 418.379 349.504C413.785 350.187 409.156 350.972 404.524 351.236L403.893 351.556L401.789 349.136C402.746 347.345 402.164 347.919 403.891 346.83C406.004 346.299 411.407 345.729 413.786 345.412Z"/><path fill="#F64B00" transform="matrix(0.657133 0 0 0.657133 -172.169 -101.856)" d="M403.891 346.83C405.865 346.904 409.368 346.698 410.603 347.769C408.401 349.081 406.134 349.824 404.524 351.236L403.893 351.556L401.789 349.136C402.746 347.345 402.164 347.919 403.891 346.83Z"/><path fill="#C54C03" transform="matrix(0.657133 0 0 0.657133 -172.169 -101.856)" d="M580.907 279.347C584.436 281.355 585.641 286.998 588.889 290.759C586.016 291.236 582.76 292.12 579.891 292.827C580.926 287.754 581.735 284.452 580.907 279.347Z"/><path fill="#520F01" transform="matrix(0.657133 0 0 0.657133 -172.169 -101.856)" d="M575.493 478.544C578.807 478.397 586.244 477.832 588.983 478.669C583.593 481.617 580.386 483.047 575.493 478.544Z"/><defs><linearGradient id="gradient_2" gradientUnits="userSpaceOnUse" x1="397.40128" y1="480.46616" x2="376.159" y2="363.99417"><stop offset="0" stop-color="#FE8F00"/><stop offset="1" stop-color="#FFFF25"/></linearGradient></defs><path fill="url(#gradient_2)" transform="matrix(0.657133 0 0 0.657133 -172.169 -101.856)" d="M434.835 356.46C443.305 355.204 452.078 354.366 460.61 353.443C458.247 356.311 455.35 359.64 453.326 362.688L453.105 371.969C453.186 401.746 452.231 431.08 453.47 460.851C455.456 463.457 457.705 466.28 459.581 468.932C447.639 471.642 427.016 473.617 413.909 475.678C415.921 473.066 421.779 465.875 422.085 463.103C424.154 444.356 423.82 416.213 423.33 397.54C416.061 415.086 411.008 435.246 403.971 451.719C401.429 459.937 398.666 468.085 395.686 476.154C391.635 476.562 387.892 477.162 383.883 477.798C380.833 468.857 377.143 458.533 374.928 449.464C370.281 438.04 363.798 412.793 359.129 403.558C356.969 424.909 356.85 447.681 355.94 469.152C355.566 477.97 357.545 479.464 363.145 485.281C349.612 488.782 335.118 493.047 321.537 495.888C333.945 479.275 332.472 468.57 333.359 449.013L335.378 404.171C335.721 396.886 335.91 386.688 336.78 379.659C335.269 377.318 331.217 373.895 329.021 371.886C343.178 368.953 361.605 366.388 376.052 364.217C377.373 368.144 379.264 373.237 380.037 377.203C383.893 386.001 391.86 415.946 394.706 426.002C400.242 405.288 409.241 379.852 415.786 358.634C421.496 358.26 428.905 357.107 434.835 356.46Z"/><path fill="#FD8F03" transform="matrix(0.657133 0 0 0.657133 -172.169 -101.856)" d="M373.202 435.172C384.155 433.6 396.794 431.398 407.618 430.386C405.968 435.268 402.123 445.469 402.458 450.125C403.319 451.507 402.746 451.153 403.971 451.719C401.429 459.937 398.666 468.085 395.686 476.154C391.635 476.562 387.892 477.162 383.883 477.798C380.833 468.857 377.143 458.533 374.928 449.464C378.369 446.097 374.743 439.25 373.202 435.172Z"/><path fill="#FEEF2D" transform="matrix(0.657133 0 0 0.657133 -172.169 -101.856)" d="M329.021 371.886C343.178 368.953 361.605 366.388 376.052 364.217C377.373 368.144 379.264 373.237 380.037 377.203C376.833 375.528 377.92 367.717 371.43 370.287C370.83 370.525 364.841 367.38 363.782 367.388C356.352 368.674 337.935 370.961 331.849 372.782C333.676 374.484 336.789 376.891 337.811 378.895C337.167 379.639 337.542 379.5 336.78 379.659C335.269 377.318 331.217 373.895 329.021 371.886Z"/><path fill="#FEEF2D" transform="matrix(0.657133 0 0 0.657133 -172.169 -101.856)" d="M434.835 356.46C443.305 355.204 452.078 354.366 460.61 353.443C458.247 356.311 455.35 359.64 453.326 362.688L453.105 371.969C452.296 373.088 452.404 376.196 452.294 377.886C451.696 375.191 451.939 367.166 452.012 364.16C440.725 354.066 448.725 358.665 435.538 356.574L434.835 356.46Z"/><defs><linearGradient id="gradient_3" gradientUnits="userSpaceOnUse" x1="610.78821" y1="359.49701" x2="607.97003" y2="290.07626"><stop offset="0" stop-color="#FD9804"/><stop offset="1" stop-color="#FFE71E"/></linearGradient></defs><path fill="url(#gradient_3)" transform="matrix(0.657133 0 0 0.657133 -172.169 -101.856)" d="M501.636 293.024C505.424 295.772 509.006 292.671 515.176 299.522C505.191 308.592 478.33 338.669 491.511 352.093C505.802 366.647 542.867 345.882 553.289 332.963C565.652 317.636 582.231 286.555 605.917 304.703C610.367 301.214 615.046 299.127 619.336 304.808C619.867 309.124 598.727 334.342 604.564 340.558C612.611 341.682 627.511 324.437 632.672 318.87C632.001 313.158 631.643 309.134 635.572 304.469C640.28 297.636 649.67 293.764 657.727 296.421C663.365 299.001 662.966 303.765 658.489 307.402L657.909 307.166C657.922 305.291 658.106 304.665 657.193 303.128C651.638 302.639 648.573 308.705 646.875 313.06C649.033 320.172 651.589 323.082 655.985 328.911C658.933 327.514 666.19 324.319 668.113 322.074C680.339 307.797 693.355 285.126 714.891 300.934L715.461 300.583C720.761 297.276 724.51 296.751 729.126 301.682C729.253 302.136 729.408 302.695 729.592 303.357C726.398 309.766 721.955 316.69 718.817 323.025C716.681 327.336 713.771 335.728 715.303 340.182C722.119 347.072 745.158 319.649 752.223 314.826C752.163 314.976 752.103 315.126 752.043 315.277L751.725 316.021C747.193 326.969 731.658 343.112 720.68 347.355C707.361 352.503 702.026 343.798 698.402 333.056C692.822 339.174 678.743 354.93 669.177 344.631C665.79 340.986 666.825 332.258 667.44 327.532C664.414 328.988 661.349 330.561 658.335 332.062C659.165 338.616 658.103 343.63 652.4 348.108C645.981 353.35 628.734 356.902 623.026 349.157C617.482 341.636 637.342 334.598 641.163 332.909C639.389 329.748 636.329 325.54 634.225 322.459C625.511 331.33 590.223 370.06 587.227 337.342C576.376 348.499 556.325 366.838 553.066 338.668C535.11 353.138 516.954 367.466 492.106 365.48C485.622 365.008 477.509 362.211 473.476 356.709C457.849 335.385 486.203 305.141 501.636 293.024Z"/><path fill="#FEE94A" transform="matrix(0.657133 0 0 0.657133 -172.169 -101.856)" d="M635.572 304.469C640.28 297.636 649.67 293.764 657.727 296.421C654.858 299.14 653.017 297.392 649.64 298.538C645.814 299.836 640.658 302.57 637.105 304.517L635.572 304.469Z"/><path transform="matrix(0.657133 0 0 0.657133 -172.169 -101.856)" d="M597.579 307.228C599.739 307.244 600.993 306.995 602.695 308.242L602.814 309.545C599.537 317.086 580.444 337.973 574.495 343.945L572.761 344.942C570.804 344.846 571.599 345.22 570.274 343.839C567.728 336.285 575.718 324.609 580.289 319.16C585.289 313.2 590.411 309.906 597.579 307.228Z"/><path transform="matrix(0.657133 0 0 0.657133 -172.169 -101.856)" d="M707.311 303.529C709.548 303.774 711.049 303.841 712.102 305.862C710.082 312.321 691.168 334.157 685.74 339.741C684.613 340.249 684.674 340.086 683.324 340.069C679.422 337.104 682.589 328.58 684.294 324.881C688.848 315.005 697.122 307.329 707.311 303.529Z"/><path transform="matrix(0.657133 0 0 0.657133 -172.169 -101.856)" d="M640.434 337.581C642.376 337.407 642.665 337.55 644.031 338.521C644.468 343.988 637.457 347.292 633.087 348.645C631.679 348.663 631.079 348.221 629.822 347.6C627.716 342.993 637.149 339.062 640.434 337.581Z"/><defs><linearGradient id="gradient_4" gradientUnits="userSpaceOnUse" x1="863.9425" y1="439.07632" x2="867.93744" y2="368.89182"><stop offset="0" stop-color="#FFCC08"/><stop offset="1" stop-color="#FFF31C"/></linearGradient></defs><path fill="url(#gradient_4)" transform="matrix(0.657133 0 0 0.657133 -172.169 -101.856)" d="M831.73 363.354C838.552 364.279 846.424 365.889 853.277 367.12C855.342 367.397 865.675 368.671 867.02 369.137C873.69 369.844 881.867 370.791 888.448 372.059C883.03 376.166 883.629 376.266 885.187 382.87C891.459 401.872 897.234 421.12 903.612 440.159C907.902 453.876 912.391 468.159 917.587 481.574C920.196 488.309 925.075 493.571 929.3 499.299L873.002 486.001C876.898 484.078 878.588 483.184 882.095 480.661C880.245 471.903 877.23 462.395 874.627 453.772C865.386 452.899 853.446 450.866 844.052 449.54C841.931 456.478 840.213 464.519 838.798 471.615C840.153 474.419 842.027 477.638 843.545 480.409C832.259 477.903 820.578 476.476 809.242 473.814C811.899 472.023 814.227 470.265 816.778 468.323L825.721 434.528C828.322 423.337 834.251 399.607 838.167 389.045L841.867 373.301C838.142 368.976 836.007 367.095 831.73 363.354Z"/><path fill="#FEA705" transform="matrix(0.657133 0 0 0.657133 -172.169 -101.856)" d="M830.329 429.439C834.082 429.848 841.685 429.94 843.823 432.541C843.988 434.83 844.06 435.539 845.299 437.478L846.215 437.949C847.75 436.93 847.203 437.613 847.783 435.736C852.884 436.93 864.651 438.114 870.265 438.66L871.151 440.684L872.106 440.874C872.589 438.997 872.553 438.152 872.627 436.193C876.8 435.231 897.946 439.874 903.612 440.159C907.902 453.876 912.391 468.159 917.587 481.574C920.196 488.309 925.075 493.571 929.3 499.299L873.002 486.001C876.898 484.078 878.588 483.184 882.095 480.661C880.245 471.903 877.23 462.395 874.627 453.772C865.386 452.899 853.446 450.866 844.052 449.54C841.931 456.478 840.213 464.519 838.798 471.615C840.153 474.419 842.027 477.638 843.545 480.409C832.259 477.903 820.578 476.476 809.242 473.814C811.899 472.023 814.227 470.265 816.778 468.323L825.721 434.528C826.174 438.84 825.948 441.012 825.622 445.285C827.223 440.092 828.983 434.677 830.329 429.439Z"/><path transform="matrix(0.657133 0 0 0.657133 -172.169 -101.856)" d="M847.783 435.736C847.585 428.687 854.85 405.355 857.312 397.128C861.624 408.532 866.864 426.722 870.265 438.66C864.651 438.114 852.884 436.93 847.783 435.736Z"/><path fill="#FEE94A" transform="matrix(0.657133 0 0 0.657133 -172.169 -101.856)" d="M831.73 363.354C838.552 364.279 846.424 365.889 853.277 367.12L852.618 367.446C847.208 370.092 846.146 369.098 843.708 375.35C842.292 378.983 842.209 388.292 838.167 389.045L841.867 373.301C838.142 368.976 836.007 367.095 831.73 363.354Z"/><path fill="#FEE94A" transform="matrix(0.657133 0 0 0.657133 -172.169 -101.856)" d="M867.02 369.137C873.69 369.844 881.867 370.791 888.448 372.059C883.03 376.166 883.629 376.266 885.187 382.87L884.431 383.164L883.39 382.705C881.843 380.422 881.117 376.755 880.397 373.996C875.207 372.408 870.098 373.127 867.02 369.137Z"/><defs><linearGradient id="gradient_5" gradientUnits="userSpaceOnUse" x1="505.65723" y1="446.66455" x2="508.46152" y2="369.59052"><stop offset="0" stop-color="#FFC408"/><stop offset="1" stop-color="#FFF422"/></linearGradient></defs><path fill="url(#gradient_5)" transform="matrix(0.657133 0 0 0.657133 -172.169 -101.856)" d="M466.268 396.679C471.021 374.47 496.217 368.682 515.631 368.73C525.421 369.906 536.669 372.018 543.009 380.404C553.556 394.353 552.654 437.078 542.576 450.449C531.67 471.362 479.781 476.773 467.724 448.569C463.016 437.357 462.785 408.178 466.268 396.679Z"/><defs><linearGradient id="gradient_6" gradientUnits="userSpaceOnUse" x1="505.52792" y1="418.85297" x2="510.23059" y2="466.20691"><stop offset="0" stop-color="#FD7A00"/><stop offset="1" stop-color="#FEAA05"/></linearGradient></defs><path fill="url(#gradient_6)" transform="matrix(0.657133 0 0 0.657133 -172.169 -101.856)" d="M520.811 417.846C529.256 417.394 537.706 417.03 546.158 416.753C545.971 426.018 545.003 434.756 542.456 443.679C541.893 445.651 541.14 447.471 541.553 449.497L542.576 450.449C531.67 471.362 479.781 476.773 467.724 448.569C470.486 445.846 468.791 426.453 468.686 421.821C475.969 421.317 483.256 420.872 490.546 420.487C490.499 425.55 489.983 440.833 493.398 443.878L494.102 443.359L494.293 439.37C494.711 443.812 494.649 446.353 497.539 449.986C501.735 455.448 509.721 456.081 514.628 451.194C522.353 443.499 520.638 428.076 520.811 417.846Z"/><path transform="matrix(0.657133 0 0 0.657133 -172.169 -101.856)" d="M497.695 385.286C502.461 381.18 513.355 378.94 517.362 384.39C522.754 391.723 520.949 408.565 520.811 417.846C520.638 428.076 522.353 443.499 514.628 451.194C509.721 456.081 501.735 455.448 497.539 449.986C494.649 446.353 494.711 443.812 494.293 439.37C494.248 426.527 493.502 406.883 494.436 394.38C495.471 390.223 495.797 389.082 497.695 385.286Z"/><path fill="#FEE94A" transform="matrix(0.657133 0 0 0.657133 -172.169 -101.856)" d="M466.268 396.679C471.021 374.47 496.217 368.682 515.631 368.73C512.196 371.304 508.347 371.72 504.139 372.265C490.181 374.071 476.383 378.747 470.099 392.515C468.583 395.835 467.502 399.909 466.276 403.523C466.333 401.242 466.33 398.96 466.268 396.679Z"/><path fill="#FEE94A" transform="matrix(0.657133 0 0 0.657133 -172.169 -101.856)" d="M494.436 394.38C493.78 393.918 493.349 393.419 492.782 392.848C492.309 389.645 493.044 385.942 496.303 384.564L497.695 385.286C495.797 389.082 495.471 390.223 494.436 394.38Z"/><path fill="#FEA705" transform="matrix(0.657133 0 0 0.657133 -172.169 -101.856)" d="M717.575 364.324C728.588 365.394 740.685 365.961 751.799 366.69C756.059 375.862 761.842 386.174 766.45 395.534C769.73 401.16 782.165 425.505 785.205 428.642L784.677 429.35L785.727 430.384L786.776 430.32C788.665 427.945 788.15 427.858 788.687 424.425C792.714 424.704 798.586 426.164 802.121 424.879C803.419 424.407 803.814 422.593 804.426 421.128C804.386 437.745 802.027 458.674 808.413 473.914C798.08 472.257 787.373 471.089 776.964 469.821C766.844 448.769 755.883 428.132 744.108 407.959C744.416 424.999 744.631 442.041 744.751 459.083C746.698 461.889 749.884 465.477 752.142 468.174C741.247 466.597 729.292 466.181 718.148 464.949C720.921 462.62 723.039 460.611 725.632 458.073C726.095 441.273 725.823 423.725 725.788 406.869C725.663 398.825 726.002 390.583 725.912 382.536C725.805 372.899 723.929 370.588 717.575 364.324Z"/><path fill="#FEEF2D" transform="matrix(0.657133 0 0 0.657133 -172.169 -101.856)" d="M717.575 364.324C728.588 365.394 740.685 365.961 751.799 366.69C756.059 375.862 761.842 386.174 766.45 395.534L764.964 395.837C758.79 391.49 756.968 382.972 752.896 377.327C749.823 373.069 734.94 373.662 729.884 373.543C729.903 380.339 730.603 400.066 728.104 405.303C727.208 405.978 726.786 406.333 725.788 406.869C725.663 398.825 726.002 390.583 725.912 382.536C725.805 372.899 723.929 370.588 717.575 364.324Z"/><defs><linearGradient id="gradient_7" gradientUnits="userSpaceOnUse" x1="596.22516" y1="411.48367" x2="595.43793" y2="364.37167"><stop offset="0" stop-color="#FFD912"/><stop offset="1" stop-color="#FFF937"/></linearGradient></defs><path fill="url(#gradient_7)" transform="matrix(0.657133 0 0 0.657133 -172.169 -101.856)" d="M553.215 365.801C575.694 365.074 611.932 358.054 630.572 373.465C640.143 381.378 639.426 399.576 630.677 407.784C626.559 412.349 617.534 414.521 614.739 417.92C612.775 417.433 612.099 416.148 610.467 414.477C606.015 414.394 595.265 413.675 591.926 415.526L591.704 417.059C593.295 419.642 594.954 421.94 591.973 423.879C590.486 421.439 589.062 418.672 586.848 416.952C586.747 422.112 586.685 427.272 586.663 432.433L586.703 454.715C588.735 457.1 591.043 459.581 593.147 461.935C579.777 462.261 566.411 462.706 553.049 463.268L553.45 462.876C556.181 460.169 558.452 457.46 559.65 453.754C562.225 445.791 560.821 415.493 560.853 404.864C560.767 394.819 560.979 383.518 560.594 373.611C558.04 370.406 556.144 368.616 553.215 365.801Z"/><path fill="#FEA705" transform="matrix(0.657133 0 0 0.657133 -172.169 -101.856)" d="M560.853 404.864C562.111 407.52 560.982 423.975 561.714 428.051C561.803 424.114 561.756 416.653 562.145 412.982C567.044 410.721 570.26 411.79 574.732 410.514C577.252 409.795 581.24 406.551 584.669 406.155L585.384 406.878C585.311 409.099 585.242 410.292 585.554 412.543C590.826 416.742 603.669 409.261 607.844 404.852L608.283 405.266C614.712 411.218 620.727 408.392 624.055 410.906C622.214 413.668 617.78 412.641 615.337 416.093C612.862 416.158 611.398 413.836 610.285 413.918C605.443 414.275 594.417 412.439 590.855 415.374L590.802 416.607L591.53 417.106L591.704 417.059C593.295 419.642 594.954 421.94 591.973 423.879C590.486 421.439 589.062 418.672 586.848 416.952C586.747 422.112 586.685 427.272 586.663 432.433L586.703 454.715C588.735 457.1 591.043 459.581 593.147 461.935C579.777 462.261 566.411 462.706 553.049 463.268L553.45 462.876C556.181 460.169 558.452 457.46 559.65 453.754C562.225 445.791 560.821 415.493 560.853 404.864Z"/><path fill="#FECF21" transform="matrix(0.657133 0 0 0.657133 -172.169 -101.856)" d="M583.334 415.012C580.768 414.878 564.326 415.456 563.68 415.078L564.603 414.543C568.862 414.509 578.629 413.901 582.94 414.846C583.591 414.989 583.804 416.769 584.057 417.747C585.643 416.871 586.086 416.263 587.652 416.412L586.848 416.952C586.747 422.112 586.685 427.272 586.663 432.433C586.098 435.582 585.779 439.351 585.181 442.811C582.312 436.458 583.202 422.465 583.334 415.012Z"/><path transform="matrix(0.657133 0 0 0.657133 -172.169 -101.856)" d="M586.843 378.017C593.889 377.937 601.215 377.525 606.873 382.427C615.358 389.777 610.631 400.054 604.287 406.752C598.295 411.471 593.665 411.728 586.322 412.719C586.036 401.149 586.21 389.573 586.843 378.017Z"/><defs><linearGradient id="gradient_8" gradientUnits="userSpaceOnUse" x1="607.69299" y1="549.84406" x2="605.08588" y2="493.91788"><stop offset="0" stop-color="#F5980A"/><stop offset="1" stop-color="#FDD30C"/></linearGradient></defs><path fill="url(#gradient_8)" transform="matrix(0.657133 0 0 0.657133 -172.169 -101.856)" d="M548.701 539.846C547.363 541.016 546.002 542.159 544.619 543.275C528.311 556.335 490.356 567.647 493.475 532.221C494.668 518.673 507.842 504.234 518.916 496.351C522.015 499.434 525.718 498.106 529.643 497.771L528.762 498.384C518.144 505.836 506.808 518.551 504.122 531.644C497.821 562.352 537.963 547.831 547.821 535.055C551.211 530.662 555.629 516.913 560.982 514.447C581.19 505.137 576.881 523.404 573.999 535.188C581.453 527.518 586.529 514.64 599.1 512.144C605.056 510.961 610.335 516.072 603.799 521.409C602.358 521.016 603.175 518.543 601.503 515.977L599.968 515.983C593.899 519.119 584.336 532.299 586.472 539.367C592.562 547.649 604.824 534.33 608.88 529.551C611.637 526.302 617.487 510.948 622.599 513.245C626.794 520.237 609.802 536.899 617.434 541.456C628.631 541.722 633.624 516.006 641.807 511.938C646.266 513.382 640.443 526.553 639.339 529.476C642.954 525.522 653.151 513.218 659.151 514.543C663.181 520.347 650.745 534.283 653.429 541.112C661.771 543.094 673.362 518.352 682.467 514.802C690.804 511.551 690.982 513.346 699.114 516.673C700.512 517.245 700.373 516.915 702.223 517.963C704.166 523.708 693 536.287 697.187 541.555C704.26 542.375 712.846 528.032 719.69 525.514L720.106 526.182C719.402 528.429 717.541 531.151 715.916 532.859C707.325 541.891 688.755 559.109 689.102 533.621C681.523 540.548 672.753 552.492 664.998 538.92C661.618 541.802 650.384 551.022 646.909 542.846C644.552 537.299 648.87 528.344 651.219 522.981C644.933 528.52 634.793 546.275 627.395 544.914C626.257 543.128 626.695 543.079 626.943 540.606L626.075 540.358L624.582 541.323C621.27 543.441 615.684 547.123 611.573 545.937C607.763 544.838 608.492 540.975 606.833 538.027C603.43 538.269 594.203 548.36 586.651 546.499C581.664 545.972 579.935 539.174 574.969 538.888C562.922 538.193 559.706 556.171 548.701 539.846Z"/><path transform="matrix(0.657133 0 0 0.657133 -172.169 -101.856)" d="M570.889 515.406C571.876 515.762 571.865 516.011 572.486 516.913C571.608 520.325 570.666 523.719 569.661 527.095C567.262 535.085 565.46 539.334 558.1 543.302C551.335 535.26 564.273 519.931 570.889 515.406Z"/><path transform="matrix(0.657133 0 0 0.657133 -172.169 -101.856)" d="M690.185 517.56C692.34 517.285 693.231 517.011 695.336 517.609L695.662 518.375C692.187 523.925 683.268 533.236 678.22 537.368C676.504 538.337 676.048 538.837 674.22 538.594C672.429 535.354 676.971 529.165 678.881 526.578C682.076 522.25 685.505 519.996 690.185 517.56Z"/><path fill="#FEA705" transform="matrix(0.657133 0 0 0.657133 -172.169 -101.856)" d="M653.772 386.321C660.874 386.441 667.132 386.338 673.407 390.003C674.253 388.843 675.901 387.27 676.954 386.198C676.887 391.744 676.875 397.29 676.919 402.836L677.574 404.189C680.892 405.159 684.406 404.548 687.744 404.821C693.192 404.467 696.707 404.208 702.14 403.146L702 412.411C702.2 414.622 702.076 419.454 702.091 421.865C692.255 419.679 687.827 419.54 677.581 419.227C677.655 426.242 676.929 441.129 677.616 447.15C681.277 450.969 698.382 449.419 703.668 448.242C706.473 447.618 713.377 443.006 716.101 441.271C714.942 449.507 713.258 457.661 711.059 465.682C691.202 463.807 668.911 463.457 648.787 462.75C650.512 448.478 649.555 419.757 649.494 404.498C650.945 404.669 651.014 404.757 652.478 404.378C654.729 401.047 653.849 390.684 653.772 386.321Z"/><path fill="#FECF21" transform="matrix(0.657133 0 0 0.657133 -172.169 -101.856)" d="M687.744 404.821C693.192 404.467 696.707 404.208 702.14 403.146L702 412.411C699.847 411.258 700.025 410.187 699.301 409.502C695.589 405.989 692.615 409.391 687.744 404.821Z"/><path fill="#FEE94A" transform="matrix(0.657133 0 0 0.657133 -172.169 -101.856)" d="M673.407 390.003C674.253 388.843 675.901 387.27 676.954 386.198C676.887 391.744 676.875 397.29 676.919 402.836L675.76 402.375C673.264 399.353 673.615 394.084 673.407 390.003Z"/><path fill="#FEEF2D" transform="matrix(0.657133 0 0 0.657133 -172.169 -101.856)" d="M642.882 362.032L654.561 362.177C671.045 363.099 693.785 363.801 710.378 364.036C710.978 371.729 712.115 379.041 712.731 386.4C708.11 383.546 704.693 381.262 699.385 379.761C692.152 377.716 684.906 379.269 677.739 377.767C677.449 380.459 677.046 383.527 676.954 386.198C675.901 387.27 674.253 388.843 673.407 390.003C667.132 386.338 660.874 386.441 653.772 386.321C653.849 390.684 654.729 401.047 652.478 404.378C651.014 404.757 650.945 404.669 649.494 404.498C649.477 397.229 649.016 378.596 649.793 372.176C648.718 368.943 645.094 364.815 642.882 362.032Z"/><path fill="#FEE94A" transform="matrix(0.657133 0 0 0.657133 -172.169 -101.856)" d="M642.882 362.032L654.561 362.177C652.946 365.412 651.636 370.801 649.793 372.176C648.718 368.943 645.094 364.815 642.882 362.032Z"/><path fill="#FD8F03" transform="matrix(0.657133 0 0 0.657133 -172.169 -101.856)" d="M591.704 417.059L591.926 415.526C595.265 413.675 606.015 414.394 610.467 414.477C612.099 416.148 612.775 417.433 614.739 417.92C619.978 422.897 640.666 456.463 645.213 464.723C632.724 458.279 626.097 459.852 612.208 460.504C605.119 448.535 598.818 435.997 591.973 423.879C594.954 421.94 593.295 419.642 591.704 417.059Z"/><path fill="#E9E7E8" transform="matrix(0.657133 0 0 0.657133 -172.169 -101.856)" d="M521.244 307.035C525.153 308.003 526.363 307.64 530.123 306.719L530.77 311.21C536.032 319.953 542.788 319.837 551.944 318.473C549.555 321.647 547.327 324.876 544.344 327.498C541.058 330.725 535.866 335.064 531.939 337.504C525.964 341.743 519.242 344.816 512.127 346.561C509.348 346.921 504.543 347.763 502.09 346.652C495.02 343.453 502.284 331.366 504.654 326.806C506.464 323.681 508.644 320.911 510.811 318.028C513.916 314.027 517.411 310.345 521.244 307.035Z"/><path fill="#FEFEFE" transform="matrix(0.657133 0 0 0.657133 -172.169 -101.856)" d="M521.244 307.035C525.153 308.003 526.363 307.64 530.123 306.719L530.77 311.21C530.6 316.137 530.337 321.385 530.312 326.29C523.56 326.636 518.588 326.508 511.807 326.228C511.521 323.529 511.275 320.688 510.811 318.028C513.916 314.027 517.411 310.345 521.244 307.035Z"/><path fill="#FEFEFE" transform="matrix(0.657133 0 0 0.657133 -172.169 -101.856)" d="M512.127 346.561C509.348 346.921 504.543 347.763 502.09 346.652C495.02 343.453 502.284 331.366 504.654 326.806L511.814 326.743C511.853 329.046 512.523 345.525 512.127 346.561Z"/><path fill="#FEFEFE" transform="matrix(0.657133 0 0 0.657133 -172.169 -101.856)" d="M530.234 326.136C534.073 326.489 541.465 325.739 544.344 327.498C541.058 330.725 535.866 335.064 531.939 337.504L531.169 337.082C530.144 335.496 530.309 328.475 530.234 326.136Z"/><path fill="#FEE94A" transform="matrix(0.657133 0 0 0.657133 -172.169 -101.856)" d="M776.903 368.254C788.168 369.302 800.248 371.408 811.268 372.015L804.338 378.473C804.229 392.691 804.259 406.91 804.426 421.128C803.814 422.593 803.419 424.407 802.121 424.879C798.586 426.164 792.714 424.704 788.687 424.425C788.15 427.858 788.665 427.945 786.776 430.32L785.727 430.384L784.677 429.35L785.205 428.642C785.99 422.072 785.628 383.815 784.597 377.204C782.751 374.423 779.238 370.812 776.903 368.254Z"/><defs><linearGradient id="gradient_9" gradientUnits="userSpaceOnUse" x1="539.67908" y1="309.36551" x2="534.78955" y2="273.54504"><stop offset="0" stop-color="#FFDC0F"/><stop offset="1" stop-color="#FFF947"/></linearGradient></defs><path fill="url(#gradient_9)" transform="matrix(0.657133 0 0 0.657133 -172.169 -101.856)" d="M501.636 293.024C516.895 280.131 536.483 270.085 556.67 270.93C563.87 271.232 571.054 276.289 570.001 284.23C568.699 294.043 552.158 314.227 541.155 308.977C537.669 302.82 563.498 293.104 560.371 283.707C551.611 272.505 525.946 290.406 517.985 297.11C517.042 297.906 516.105 298.71 515.176 299.522C509.006 292.671 505.424 295.772 501.636 293.024Z"/><path fill="#FEE94A" transform="matrix(0.657133 0 0 0.657133 -172.169 -101.856)" d="M518.916 496.351C528.588 489.939 540.853 484.354 552.681 486.376C557.286 487.163 564.735 491.291 562.593 496.725C559.582 504.364 552.715 510.328 544.712 511.508L543.767 511.081C544.591 505.345 557.396 499.66 556.216 492.029C550.036 485.275 535.347 495.612 529.643 497.771C525.718 498.106 522.015 499.434 518.916 496.351Z"/><path fill="#FEEF2D" transform="matrix(0.657133 0 0 0.657133 -172.169 -101.856)" d="M628.984 491.694C632.043 491.661 633.759 491.731 634.375 494.884C633.258 498.824 628.348 502.652 625.244 505.473C623.366 506.452 624.068 506.43 622.282 506.106L621.734 504.763C622.213 499.843 625.241 494.903 628.984 491.694Z"/><path fill="#E9E7E8" transform="matrix(0.657133 0 0 0.657133 -172.169 -101.856)" d="M536.634 295.793C533.061 299.901 531.684 301.547 530.123 306.719C526.363 307.64 525.153 308.003 521.244 307.035C526.535 302.593 530.803 299.423 536.634 295.793Z"/><defs><linearGradient id="gradient_10" gradientUnits="userSpaceOnUse" x1="776.46014" y1="298.17639" x2="772.31311" y2="318.68454"><stop offset="0" stop-color="#140000"/><stop offset="1" stop-color="#541102"/></linearGradient></defs><path fill="url(#gradient_10)" transform="matrix(0.657133 0 0 0.657133 -172.169 -101.856)" d="M776.538 300.84C775.524 299.303 772.711 294.206 772.045 293.356C774.944 296.061 777.197 299.313 780.242 302.284C781.972 301.48 785.32 299.726 787.152 299.866C793.736 300.37 794.012 309.8 793.968 314.886L793.29 315.066L792.302 312.088L791.644 311.914C789.96 316.686 787.354 325.071 780.133 321.76L779.14 319.554C779.479 317.476 779.915 316.396 778.936 314.593C773.779 312.535 772.631 319.616 766.183 313.243C765.26 314.269 764.864 314.533 764.586 315.898C763.539 312.411 762.363 311.215 759.996 308.6C759.604 308.342 759.899 308.492 759.009 308.513C758.655 306.956 759.383 294.709 759.46 292.105C763.897 302.294 758.336 304.347 772.372 307.773C773.988 305.314 775.225 303.484 776.538 300.84Z"/><path fill="#C54C03" transform="matrix(0.657133 0 0 0.657133 -172.169 -101.856)" d="M759.996 308.6L760.92 307.377C762.821 308.204 765.726 311.256 766.183 313.243C765.26 314.269 764.864 314.533 764.586 315.898C763.539 312.411 762.363 311.215 759.996 308.6Z"/><defs><linearGradient id="gradient_11" gradientUnits="userSpaceOnUse" x1="642.49225" y1="497.08551" x2="633.27606" y2="497.57431"><stop offset="0" stop-color="#FBF7FC" stop-opacity="0"/><stop offset="1" stop-color="#E1E3E3" stop-opacity="0.043137256"/></linearGradient></defs><path fill="url(#gradient_11)" transform="matrix(0.657133 0 0 0.657133 -172.169 -101.856)" d="M638.752 488.261L640.114 487.842C646.055 491.702 639.357 502.098 640.157 505.747C635.476 506.972 633.491 508.531 629.488 511.05C635.927 504.559 644.476 498.108 638.752 488.261Z"/><path fill="#F64B00" transform="matrix(0.657133 0 0 0.657133 -172.169 -101.856)" d="M713.083 233.356L714.531 233.433L715.018 234.308C714.153 236.342 712.321 237.724 710.653 239.279C708.904 238.539 708.493 238.178 708.13 236.468C709.39 234.591 710.936 234.254 713.083 233.356Z"/><path fill="#643E2D" fill-opacity="0.97647059" transform="matrix(0.657133 0 0 0.657133 -172.169 -101.856)" d="M384.041 347.528C383.501 346.82 383.462 346.923 382.682 346.401C380.856 347.178 380.617 347.235 378.635 347.211L378.487 346.525C380.191 344.55 380.561 344.467 383.092 343.751C384.229 345.362 384.396 345.583 384.655 347.525L384.041 347.528Z"/><path fill="#B22E01" fill-opacity="0.96078432" transform="matrix(0.657133 0 0 0.657133 -172.169 -101.856)" d="M809.83 327.111C807.726 324.59 807 323.812 805.626 320.856L805.835 321.07L806.524 320.555L805.178 319.576L805.807 319.472C807.767 321.493 808.777 323.24 810.288 325.6L809.83 327.111Z"/></g></svg>